<svg data-v-fde0c5aa="" xmlns="http://www.w3.org/2000/svg" viewBox="0 0 300 300" class="iconLeftSlogan"><!----><defs data-v-fde0c5aa=""><!----></defs><rect data-v-fde0c5aa="" fill="transparent" x="0" y="0" width="300px" height="300px" class="logo-background-square"></rect><defs data-v-fde0c5aa=""><!----></defs><g data-v-fde0c5aa="" id="e8288d07-8484-4e1f-95e8-1b75a122e899" fill="#000000" transform="matrix(3.0700464054300878,0,0,3.0700464054300878,132.00977378243434,107.77986332635017)"><path d="M0.31 7.77L0.31 7.77L0.31 7.77Q0.31 7.20 1.71 6.26L1.71 6.26L1.71 6.26Q3.07 5.35 3.71 5.35L3.71 5.35L3.71 5.35Q3.71 5.57 3.56 6.00L3.56 6.00L3.56 6.00Q3.40 6.43 3.40 6.65L3.40 6.65L3.40 6.65Q3.40 8.12 4.94 11.55L4.94 11.55L5.77 9.83L5.77 9.83Q6.23 8.90 6.71 7.99L6.71 7.99L6.71 7.99Q7.91 5.67 9.35 5.67L9.35 5.67L9.42 5.67L9.42 5.67Q9.58 5.74 9.58 5.88L9.58 5.88L9.58 5.91L9.58 5.91Q9.56 5.94 9.56 5.95L9.56 5.95L9.56 5.95Q7.06 10.61 5.92 14.49L5.92 14.49L5.92 14.49Q5.45 15.04 4.42 15.92L4.42 15.92L4.42 15.92Q3.29 16.90 3.01 16.90L3.01 16.90L3.01 16.90Q3.01 13.57 1.30 9.59L1.30 9.59L1.30 9.59Q1.23 9.42 0.71 8.71L0.71 8.71L0.71 8.71Q0.31 8.15 0.31 7.77ZM10.09 14.32L10.09 10.99L10.09 10.99Q9.91 10.99 9.55 11.14L9.55 11.14L9.55 11.14Q9.20 11.28 9.02 11.28L9.02 11.28L9.02 11.28Q9.02 10.40 10.50 9.45L10.50 9.45L10.50 9.45Q11.87 8.57 12.78 8.57L12.78 8.57L12.78 8.57Q12.78 8.86 12.33 9.84L12.33 9.84L12.33 10.36L12.33 10.36Q12.33 10.37 12.32 10.72L12.32 10.72L12.32 10.72Q12.32 10.81 12.32 10.89L12.32 10.89L12.32 10.89Q12.32 11.76 12.33 11.94L12.33 11.94L12.33 11.94Q12.38 12.50 12.47 12.50L12.47 12.50L12.75 12.50L14.29 11.52L14.29 11.52Q14.32 11.51 14.36 11.51L14.36 11.51L14.36 11.51Q14.59 11.51 14.59 12.17L14.59 12.17L14.59 12.17Q14.59 12.98 13.27 14.22L13.27 14.22L13.27 14.22Q11.94 15.46 11.12 15.46L11.12 15.46L11.12 15.46Q10.09 15.46 10.09 14.32L10.09 14.32ZM11.09 6.48L11.09 6.48L11.09 6.20L11.09 6.20Q11.09 6.10 11.07 6.01L11.07 6.01L11.07 5.92L11.07 5.92Q11.05 5.88 10.81 5.74L10.81 5.74L10.81 5.74Q10.64 5.64 10.64 5.50L10.64 5.50L10.64 5.50Q10.64 5.53 10.65 5.36L10.65 5.36L11.75 4.59L11.75 4.59Q12.53 4.09 13.05 4.09L13.05 4.09L13.05 4.09Q13.31 4.09 13.31 4.45L13.31 4.45L13.31 4.45Q13.31 5.74 11.63 7.60L11.63 7.60L11.63 7.60Q10.88 8.44 10.79 8.44L10.79 8.44L10.47 8.44L10.47 8.44Q10.47 8.15 10.78 7.48L10.78 7.48L10.78 7.48Q11.09 6.82 11.09 6.48ZM19.75 13.01L19.75 13.01L19.75 13.01Q19.75 12.14 18.76 11.52L18.76 11.52L18.76 11.52Q17.47 10.71 17.58 10.02L17.58 10.02L17.58 10.02Q17.64 9.70 18.05 9.35L18.05 9.35L18.05 9.35Q18.52 9.02 18.65 8.92L18.65 8.92L18.65 8.92Q18.94 8.67 18.98 8.44L18.98 8.44L18.98 8.44Q19.05 8.05 18.45 8.05L18.45 8.05L18.45 8.05Q17.46 8.05 16.31 8.82L16.31 8.82L16.31 8.82Q15.06 9.66 15.06 10.61L15.06 10.61L15.06 10.61Q15.06 11.28 15.88 11.83L15.88 11.83L15.88 11.83Q16.86 12.49 16.86 13.23L16.86 13.23L16.86 13.23Q16.86 14.08 15.82 14.66L15.82 14.66L15.82 14.66Q15.19 15.01 15.12 15.33L15.12 15.33L15.12 15.33Q15.04 15.75 15.93 15.75L15.93 15.75L15.93 15.75Q17.19 15.75 18.38 15.02L18.38 15.02L18.38 15.02Q19.75 14.20 19.75 13.01ZM21.49 13.69L21.49 6.55L21.49 6.55Q21.31 6.09 21.21 5.57L21.21 5.57L21.20 5.40L21.20 5.40Q21.20 5.38 21.21 5.29L21.21 5.29L23.73 4.17L24.18 4.17L24.18 4.17Q24.18 4.91 24.02 6.38L24.02 6.38L24.02 6.38Q23.86 7.84 23.86 8.58L23.86 8.58L23.86 8.58Q23.86 8.81 23.86 8.81L23.86 8.81L23.86 8.81Q23.87 9.21 23.87 9.18L23.87 9.18L23.87 9.63L24.01 9.77L24.01 9.77Q24.81 9.16 25.33 8.92L25.33 8.92L25.33 8.92Q26.04 8.58 26.84 8.58L26.84 8.58L26.84 8.58Q26.84 8.93 26.68 9.60L26.68 9.60L26.68 9.60Q26.52 10.26 26.52 10.61L26.52 10.61L26.52 10.61Q26.52 11.37 26.81 12.29L26.81 12.29L26.81 12.29Q26.88 12.52 27.09 12.57L27.09 12.57L27.09 12.57Q27.26 12.50 27.37 12.43L27.37 12.43L27.37 12.43Q27.51 12.31 27.80 12.08L27.80 12.08L27.80 12.08Q27.94 11.97 28.22 11.97L28.22 11.97L28.22 11.97Q28.22 13.20 27.75 14.17L27.75 14.17L27.75 14.17Q27.15 15.40 26.04 15.40L26.04 15.40L26.04 15.40Q25.96 15.40 25.79 15.39L25.79 15.39L25.79 15.39Q25.63 15.37 25.55 15.37L25.55 15.37L25.55 15.37Q24.75 14.78 24.47 13.41L24.47 13.41L24.47 13.41Q24.32 12.66 24.29 11.17L24.29 11.17L24.29 11.17Q23.87 11.68 23.87 12.66L23.87 12.66L23.87 14.25L23.87 14.25Q23.74 15.22 22.79 15.93L22.79 15.93L22.79 15.93Q21.83 16.65 20.83 16.65L20.83 16.65L20.83 16.65Q20.83 16.14 21.16 15.17L21.16 15.17L21.16 15.17Q21.49 14.20 21.49 13.69L21.49 13.69ZM28.80 12.99L28.80 12.99L28.80 12.99Q28.80 11.55 29.55 10.39L29.55 10.39L29.55 10.39Q30.30 9.24 31.61 8.65L31.61 8.65L31.61 8.65Q32.17 8.40 33.14 8.36L33.14 8.36L33.14 8.36Q34.31 8.30 34.69 8.23L34.69 8.23L35.53 7.95L35.53 7.95Q35.57 7.95 35.62 7.94L35.62 7.94L35.70 7.94L35.70 7.94Q35.70 8.20 35.41 8.53L35.41 8.53L35.41 8.53Q35.03 8.93 34.97 9.07L34.97 9.07L34.97 9.07Q34.72 9.60 34.69 9.88L34.69 9.88L34.69 9.88Q34.68 10.00 34.68 10.70L34.68 10.70L34.68 11.55L34.68 11.55Q34.68 12.31 35.04 12.31L35.04 12.31L35.04 12.31Q35.07 12.31 35.11 12.29L35.11 12.29L35.81 11.73L35.81 11.73Q35.85 11.72 36.05 11.69L36.05 11.69L36.05 11.69Q36.05 12.56 35.45 13.87L35.45 13.87L35.45 13.87Q34.75 15.40 33.99 15.40L33.99 15.40L33.99 15.40Q33.80 15.40 33.71 15.37L33.71 15.37L33.71 15.37Q32.68 14.66 32.17 13.13L32.17 13.13L32.17 13.13Q31.79 13.87 31.37 14.57L31.37 14.57L31.37 14.57Q30.81 15.53 30.07 15.53L30.07 15.53L30.07 15.53Q28.80 15.53 28.80 12.99ZM30.76 11.89L30.76 11.89L30.76 11.89Q30.76 12.74 31.25 12.74L31.25 12.74L31.25 12.74Q31.67 12.74 32.16 11.62L32.16 11.62L32.16 11.62Q32.61 10.60 32.61 10.02L32.61 10.02L32.61 10.02Q31.47 10.02 31.12 10.39L31.12 10.39L31.12 10.39Q30.76 10.75 30.76 11.89ZM36.79 10.74L36.79 10.74L36.79 10.74Q36.79 8.82 37.84 7.13L37.84 7.13L37.84 7.13Q38.86 5.47 40.57 4.52L40.57 4.52L40.57 4.52Q40.61 4.52 40.71 4.51L40.71 4.51L40.71 4.51Q40.81 4.49 40.85 4.49L40.85 4.49L40.85 4.49Q41.30 4.49 41.52 5.05L41.52 5.05L41.52 5.05Q41.69 5.46 41.69 5.99L41.69 5.99L41.69 5.99Q41.69 7.41 40.94 8.69L40.94 8.69L40.94 8.69Q40.47 9.48 39.17 10.96L39.17 10.96L39.17 11.17L39.17 11.17Q39.17 11.69 39.31 12.21L39.31 12.21L39.31 12.21Q39.51 12.94 39.87 12.94L39.87 12.94L39.87 12.94Q40.11 12.94 40.29 12.78L40.29 12.78L40.29 12.78Q40.92 12.24 41.41 11.66L41.41 11.66L41.68 11.66L41.68 11.66Q41.68 12.99 40.99 14.13L40.99 14.13L40.99 14.13Q40.19 15.46 38.89 15.46L38.89 15.46L38.89 15.46Q37.74 15.46 37.17 13.47L37.17 13.47L37.17 13.47Q36.79 12.15 36.79 10.74ZM39.52 6.73L39.52 6.73L39.52 6.73Q39.38 6.73 39.20 7.73L39.20 7.73L39.20 7.73Q38.99 8.88 38.99 9.98L38.99 9.98L39.17 9.98L39.17 9.98Q39.35 9.98 39.56 9.09L39.56 9.09L39.56 9.09Q39.75 8.30 39.75 7.99L39.75 7.99L39.75 7.99Q39.75 7.11 39.59 6.76L39.59 6.76L39.59 6.76Q39.56 6.73 39.52 6.73Z"></path></g><defs data-v-fde0c5aa=""><linearGradient data-v-fde0c5aa="" gradientTransform="rotate(25)" id="4e25c648-b7f8-4472-b3ea-04ff71800ca4" x1="0%" y1="0%" x2="100%" y2="0%"><stop data-v-fde0c5aa="" offset="0%" stop-color="#41E296" stop-opacity="1"></stop><stop data-v-fde0c5aa="" offset="100%" stop-color="#00C4EE" stop-opacity="1"></stop></linearGradient></defs><g data-v-fde0c5aa="" id="fd9783df-177b-41cb-bb0a-ba18f01ac0d9" stroke="none" fill="url(#4e25c648-b7f8-4472-b3ea-04ff71800ca4)" transform="matrix(0.8884510381566257,0,0,0.8884510381566257,40,110.01979380263218)"><path d="M88.396 31.557c-.613-10.262-2.03-19.542-5.667-25.208-.843-1.29-2.248-2.643-4.308-3.591-2.156-.998-4.822-1.71-7.885-2.182A52.855 52.855 0 0 0 62.607 0c-2.821 0-5.497.204-7.933.576-3.062.472-5.729 1.185-7.884 2.182-1.995.965-3.68 2.587-3.855 2.715-2.079 1.938-3.271 4.672-4.239 7.802-2.795 9.352-3.099 23.174-3.119 30.485 0 2.908.061 4.752.063 4.777.049 1.534 1.237 2.756 2.675 2.756h6.866v4.549c0 .75.287 1.484.784 2.017a2.62 2.62 0 0 0 1.894.837h29.495a2.62 2.62 0 0 0 1.894-.837 2.975 2.975 0 0 0 .783-2.017V41.525c1.65-1.05 3.299-2.201 4.707-3.414.899-.781 1.707-1.577 2.378-2.5.647-.918 1.277-2.011 1.307-3.586a4.999 4.999 0 0 0-.027-.468zM58.083 6.589c1.294-.163 2.896-.25 4.493-.25 1.758-.002 3.529.107 4.875.302a19.581 19.581 0 0 1-1.946 2.157c-.725.703-1.482 1.319-2.087 1.701a4.411 4.411 0 0 1-.728.387c-.047.02-.087.032-.117.041a2.224 2.224 0 0 1-.345-.145c-.937-.437-2.65-1.908-3.888-3.359-.23-.265-.449-.531-.648-.786.129-.016.26-.033.391-.048zm22.738 27.543c-1.349 1.087-3.097 2.246-4.79 3.274a2.612 2.612 0 0 0-.497.402c-.024.018-.052.029-.075.047 0-.002-.081.063-.291.216-.419.311-1.272.91-2.39 1.571l-1.244-1.592a56.111 56.111 0 0 1 3.36-2.373c2.028-1.34 3.75-2.352 3.753-2.355.852-.503 1.382-1.461 1.382-2.499v-7.63c0-1.577-1.197-2.854-2.676-2.854-1.477 0-2.675 1.276-2.675 2.854v5.97c-.702.435-1.616 1.01-2.601 1.661-2.169 1.446-4.604 3.131-6.219 4.826-.977 1.042-1.047 2.714-.163 3.846l4.338 5.553a2.614 2.614 0 0 0 2.06 1.024c.382 0 .767-.086 1.129-.266.518-.258.995-.519 1.454-.776v7.955H50.534V22.242c0-.753-.286-1.489-.785-2.02-.497-.531-1.187-.836-1.891-.836s-1.394.305-1.894.836a2.979 2.979 0 0 0-.784 2.02v23.34h-4.244c-.005-.54-.008-1.149-.008-1.821 0-4.706.168-12.339 1.03-19.307.428-3.48 1.035-6.795 1.831-9.426.776-2.641 1.827-4.535 2.624-5.213.003-.003.092-.084.258-.224.481-.428 1.711-1.369 2.255-1.598.722-.337 1.626-.662 2.667-.953.057.141.115.278.175.415.893 1.875 2.463 3.791 4.312 5.604.925.886 1.902 1.703 2.932 2.358 1.043.632 2.096 1.197 3.566 1.232 1.678-.051 2.83-.752 4.006-1.523 1.724-1.199 3.357-2.833 4.683-4.449.66-.812 1.234-1.61 1.696-2.406.217-.423.437-.794.613-1.245 1.061.295 1.979.624 2.71.966 1.22.574 1.758 1.186 2.068 1.644 2.471 3.584 4.216 12.478 4.7 22.234-.204.352-1.049 1.348-2.233 2.262zM88.495 69.064c-1.365-3.054-3.819-4.805-6.731-4.805-1.492 0-2.811.463-3.9.995-3.329-2.227-7.74-3.497-12.405-3.497-13.149 0-23.847 7.648-23.847 17.05 0 3.359 2.434 7.907 6.506 9.699C50.928 89.746 54.239 90 58.344 90c1.084 0 2.219-.018 3.389-.038a237.002 237.002 0 0 1 5.912-.03c.709.002 1.406.006 2.09.006 3.983 0 8.155-.101 11.536-1.307 4.204-1.5 8.73-5.213 8.73-9.823-.001-4.35-.479-7.447-1.506-9.744zm-8.752 14.694c-2.587.922-6.064 1.04-10.009 1.04-1.375 0-2.806-.014-4.276-.014-2.515 0-4.917.075-7.113.075-3.391 0-6.296-.181-8.39-1.102-1.106-.487-1.985-1.396-2.588-2.349 3.018.319 9.878.938 17.548.938l.359-.002c1.202-.004 2.42-.021 3.647-.059.392-.014.783-.03 1.176-.046 1.097-.045 2.194-.104 3.287-.182.273-.019.546-.046.818-.067a81.908 81.908 0 0 0 3.192-.316 63.722 63.722 0 0 0 4.032-.611c.874-.163 1.459-1.052 1.305-1.982-.152-.933-.984-1.555-1.858-1.392a61.925 61.925 0 0 1-4.235.625c-1.765-4.99-5.76-8.245-5.82-8.365-.691-.594-1.701-.476-2.257.261-.558.735-.447 1.814.243 2.407h-.001s.057.047.193.174c.714.619 2.989 2.998 4.289 5.84-.403.029-.806.054-1.211.079-1.95-3.742-4.818-6.089-4.869-6.19-.691-.595-1.701-.477-2.258.259-.557.736-.447 1.814.243 2.408v-.002c0 .002.057.051.192.176.507.438 1.802 1.765 2.975 3.513-.471.011-.94.025-1.408.031-1.653-2.294-3.32-3.672-3.358-3.749-.69-.595-1.701-.477-2.257.26-.557.734-.446 1.813.244 2.407h-.002s.057.049.195.175c.198.173.522.485.909.905a176.044 176.044 0 0 1-10.962-.53 150.773 150.773 0 0 1-5.221-.501c.805-5.799 8.983-10.976 18.959-10.976 4.409 0 9.055 1.442 11.693 4.257.046.051.11.072.188.072.354 0 1.017-.458 1.813-.914.795-.457 1.725-.915 2.612-.915 1.796 0 3.421 1.874 3.421 9.41.001 1.515-2.487 3.899-5.44 4.952z"></path><path d="M43.311 60.596c-1.176-1.258-1.85-2.99-1.85-4.754v-.645h-.425v13.804c1.368-1.98 3.16-3.795 5.353-5.382v-1.21a6.367 6.367 0 0 1-3.078-1.813zm-8.699 23.361H25.87V38.044c0-1.577-1.198-2.854-2.676-2.854-1.479 0-2.676 1.277-2.676 2.854v45.913h-8.742c-3.547 0-6.423-3.068-6.423-6.853v-62.42c0-3.053 1.873-5.637 4.459-6.522v6.571c0 1.574 1.199 2.854 2.676 2.854 1.479 0 2.679-1.28 2.679-2.854v-6.9h3.466v19.025a6.89 6.89 0 0 0 1.785.244 6.9 6.9 0 0 0 1.784-.244c3.185-.854 5.554-3.925 5.554-7.583V7.833h4.36v6.897c0 1.234.736 2.275 1.762 2.674.375-1.943.8-3.729 1.28-5.335.837-2.705 2.107-6.054 4.524-8.704a11.073 11.073 0 0 0-5.07-1.241H11.776C5.282 2.124 0 7.758 0 14.684v62.42c0 6.927 5.282 12.562 11.776 12.562h22.836c2.388 0 4.609-.768 6.467-2.076a16.327 16.327 0 0 1-2.587-5.034c-1.078.874-2.419 1.401-3.88 1.401zM22.202 7.833h1.985v11.442c0 1.528-.809 2.841-1.985 3.521V7.833z"></path></g><defs data-v-fde0c5aa=""><!----></defs><g data-v-fde0c5aa="" id="4aff243f-0b33-45e1-9675-c65b1a19e314" fill="#000000" transform="matrix(0.946001219309377,0,0,0.946001219309377,131.7695266481292,167.34594337457204)"><path d="M1.26 2.80L1.26 12.60L3.36 12.60C5.49 12.60 6.55 11.69 6.55 9.87C6.55 9.19 6.32 8.62 5.84 8.17C5.37 7.72 4.81 7.41 4.14 7.25C5.38 7.02 5.99 6.30 5.99 5.11C5.99 4.40 5.74 3.84 5.23 3.42C4.72 3.01 4.00 2.80 3.08 2.80ZM1.68 7.08L1.68 3.21L3.08 3.21C3.85 3.21 4.46 3.37 4.91 3.71C5.35 4.05 5.57 4.51 5.57 5.11C5.57 5.60 5.44 5.99 5.17 6.31C4.90 6.62 4.58 6.83 4.24 6.93C3.89 7.03 3.50 7.08 3.08 7.08ZM1.68 7.48L3.36 7.48C3.76 7.48 4.16 7.56 4.56 7.72C4.97 7.88 5.32 8.16 5.63 8.54C5.94 8.92 6.09 9.37 6.09 9.87C6.09 11.42 5.18 12.19 3.36 12.19L1.68 12.19ZM16.07 7.48L20.41 7.48L20.41 7.08L16.07 7.08L16.07 3.21L20.69 3.21L20.69 2.80L15.65 2.80L15.65 12.60L20.69 12.60L20.69 12.19L16.07 12.19ZM48.20 2.80L48.20 11.79L40.71 2.45L40.71 12.60L41.13 12.60L41.13 3.61L48.62 12.95L48.62 2.80ZM60.80 2.45L56.53 12.60L57.02 12.60L58.30 9.52L63.31 9.52L64.58 12.60L65.07 12.60ZM60.80 3.50L63.11 9.07L58.49 9.07ZM71.44 3.21L73.96 3.21L73.96 12.60L74.38 12.60L74.38 3.21L76.90 3.21L76.90 2.80L71.44 2.80ZM85.37 2.80L85.37 9.24C85.37 10.29 85.66 11.13 86.23 11.77C86.80 12.42 87.55 12.74 88.49 12.74C89.44 12.74 90.19 12.42 90.76 11.77C91.33 11.13 91.62 10.29 91.62 9.24L91.62 2.80L91.20 2.80L91.20 9.24C91.20 10.17 90.94 10.92 90.43 11.47C89.92 12.02 89.28 12.29 88.49 12.29C87.71 12.29 87.06 12.02 86.56 11.47C86.05 10.92 85.79 10.17 85.79 9.24L85.79 2.80ZM101.49 2.80ZM101.07 2.80L101.07 12.60L101.49 12.60L101.49 8.48L103.04 8.48L106.16 12.60L106.71 12.60L103.52 8.47C104.41 8.41 105.13 8.15 105.66 7.67C106.20 7.20 106.47 6.52 106.47 5.64C106.47 4.71 106.17 4.00 105.56 3.52C104.95 3.04 104.16 2.80 103.17 2.80ZM101.49 3.21L103.17 3.21C104.03 3.21 104.73 3.41 105.25 3.83C105.77 4.24 106.04 4.85 106.04 5.64C106.04 6.44 105.77 7.04 105.25 7.45C104.73 7.87 104.03 8.08 103.17 8.08L101.49 8.08ZM118.33 2.45L114.06 12.60L114.55 12.60L115.82 9.52L120.83 9.52L122.11 12.60L122.60 12.60ZM118.33 3.50L120.64 9.07L116.02 9.07ZM131.07 2.80L131.07 12.60L135.55 12.60L135.55 12.19L131.49 12.19L131.49 2.80Z"></path></g></svg>