<svg data-v-423bf9ae="" xmlns="http://www.w3.org/2000/svg" viewBox="0 0 193.81732542659617 60" class="font"><!----><!----><!----><g data-v-423bf9ae="" id="17cae7e1-637a-476d-948a-68036bc09df8" fill="black" transform="matrix(4.683840944687036,0,0,4.683840944687036,-1.4519938995531732,-19.15690922479307)"><path d="M0.31 7.77L0.31 7.77L0.31 7.77Q0.31 7.20 1.71 6.26L1.71 6.26L1.71 6.26Q3.07 5.35 3.71 5.35L3.71 5.35L3.71 5.35Q3.71 5.57 3.56 6.00L3.56 6.00L3.56 6.00Q3.40 6.43 3.40 6.65L3.40 6.65L3.40 6.65Q3.40 8.12 4.94 11.55L4.94 11.55L5.77 9.83L5.77 9.83Q6.23 8.90 6.71 7.99L6.71 7.99L6.71 7.99Q7.91 5.67 9.35 5.67L9.35 5.67L9.42 5.67L9.42 5.67Q9.58 5.74 9.58 5.88L9.58 5.88L9.58 5.91L9.58 5.91Q9.56 5.94 9.56 5.95L9.56 5.95L9.56 5.95Q7.06 10.61 5.92 14.49L5.92 14.49L5.92 14.49Q5.45 15.04 4.42 15.92L4.42 15.92L4.42 15.92Q3.29 16.90 3.01 16.90L3.01 16.90L3.01 16.90Q3.01 13.57 1.30 9.59L1.30 9.59L1.30 9.59Q1.23 9.42 0.71 8.71L0.71 8.71L0.71 8.71Q0.31 8.15 0.31 7.77ZM10.09 14.32L10.09 10.99L10.09 10.99Q9.91 10.99 9.55 11.14L9.55 11.14L9.55 11.14Q9.20 11.28 9.02 11.28L9.02 11.28L9.02 11.28Q9.02 10.40 10.50 9.45L10.50 9.45L10.50 9.45Q11.87 8.57 12.78 8.57L12.78 8.57L12.78 8.57Q12.78 8.86 12.33 9.84L12.33 9.84L12.33 10.36L12.33 10.36Q12.33 10.37 12.32 10.72L12.32 10.72L12.32 10.72Q12.32 10.81 12.32 10.89L12.32 10.89L12.32 10.89Q12.32 11.76 12.33 11.94L12.33 11.94L12.33 11.94Q12.38 12.50 12.47 12.50L12.47 12.50L12.75 12.50L14.29 11.52L14.29 11.52Q14.32 11.51 14.36 11.51L14.36 11.51L14.36 11.51Q14.59 11.51 14.59 12.17L14.59 12.17L14.59 12.17Q14.59 12.98 13.27 14.22L13.27 14.22L13.27 14.22Q11.94 15.46 11.12 15.46L11.12 15.46L11.12 15.46Q10.09 15.46 10.09 14.32L10.09 14.32ZM11.09 6.48L11.09 6.48L11.09 6.20L11.09 6.20Q11.09 6.10 11.07 6.01L11.07 6.01L11.07 5.92L11.07 5.92Q11.05 5.88 10.81 5.74L10.81 5.74L10.81 5.74Q10.64 5.64 10.64 5.50L10.64 5.50L10.64 5.50Q10.64 5.53 10.65 5.36L10.65 5.36L11.75 4.59L11.75 4.59Q12.53 4.09 13.05 4.09L13.05 4.09L13.05 4.09Q13.31 4.09 13.31 4.45L13.31 4.45L13.31 4.45Q13.31 5.74 11.63 7.60L11.63 7.60L11.63 7.60Q10.88 8.44 10.79 8.44L10.79 8.44L10.47 8.44L10.47 8.44Q10.47 8.15 10.78 7.48L10.78 7.48L10.78 7.48Q11.09 6.82 11.09 6.48ZM19.75 13.01L19.75 13.01L19.75 13.01Q19.75 12.14 18.76 11.52L18.76 11.52L18.76 11.52Q17.47 10.71 17.58 10.02L17.58 10.02L17.58 10.02Q17.64 9.70 18.05 9.35L18.05 9.35L18.05 9.35Q18.52 9.02 18.65 8.92L18.65 8.92L18.65 8.92Q18.94 8.67 18.98 8.44L18.98 8.44L18.98 8.44Q19.05 8.05 18.45 8.05L18.45 8.05L18.45 8.05Q17.46 8.05 16.31 8.82L16.31 8.82L16.31 8.82Q15.06 9.66 15.06 10.61L15.06 10.61L15.06 10.61Q15.06 11.28 15.88 11.83L15.88 11.83L15.88 11.83Q16.86 12.49 16.86 13.23L16.86 13.23L16.86 13.23Q16.86 14.08 15.82 14.66L15.82 14.66L15.82 14.66Q15.19 15.01 15.12 15.33L15.12 15.33L15.12 15.33Q15.04 15.75 15.93 15.75L15.93 15.75L15.93 15.75Q17.19 15.75 18.38 15.02L18.38 15.02L18.38 15.02Q19.75 14.20 19.75 13.01ZM21.49 13.69L21.49 6.55L21.49 6.55Q21.31 6.09 21.21 5.57L21.21 5.57L21.20 5.40L21.20 5.40Q21.20 5.38 21.21 5.29L21.21 5.29L23.73 4.17L24.18 4.17L24.18 4.17Q24.18 4.91 24.02 6.38L24.02 6.38L24.02 6.38Q23.86 7.84 23.86 8.58L23.86 8.58L23.86 8.58Q23.86 8.81 23.86 8.81L23.86 8.81L23.86 8.81Q23.87 9.21 23.87 9.18L23.87 9.18L23.87 9.63L24.01 9.77L24.01 9.77Q24.81 9.16 25.33 8.92L25.33 8.92L25.33 8.92Q26.04 8.58 26.84 8.58L26.84 8.58L26.84 8.58Q26.84 8.93 26.68 9.60L26.68 9.60L26.68 9.60Q26.52 10.26 26.52 10.61L26.52 10.61L26.52 10.61Q26.52 11.37 26.81 12.29L26.81 12.29L26.81 12.29Q26.88 12.52 27.09 12.57L27.09 12.57L27.09 12.57Q27.26 12.50 27.37 12.43L27.37 12.43L27.37 12.43Q27.51 12.31 27.80 12.08L27.80 12.08L27.80 12.08Q27.94 11.97 28.22 11.97L28.22 11.97L28.22 11.97Q28.22 13.20 27.75 14.17L27.75 14.17L27.75 14.17Q27.15 15.40 26.04 15.40L26.04 15.40L26.04 15.40Q25.96 15.40 25.79 15.39L25.79 15.39L25.79 15.39Q25.63 15.37 25.55 15.37L25.55 15.37L25.55 15.37Q24.75 14.78 24.47 13.41L24.47 13.41L24.47 13.41Q24.32 12.66 24.29 11.17L24.29 11.17L24.29 11.17Q23.87 11.68 23.87 12.66L23.87 12.66L23.87 14.25L23.87 14.25Q23.74 15.22 22.79 15.93L22.79 15.93L22.79 15.93Q21.83 16.65 20.83 16.65L20.83 16.65L20.83 16.65Q20.83 16.14 21.16 15.17L21.16 15.17L21.16 15.17Q21.49 14.20 21.49 13.69L21.49 13.69ZM28.80 12.99L28.80 12.99L28.80 12.99Q28.80 11.55 29.55 10.39L29.55 10.39L29.55 10.39Q30.30 9.24 31.61 8.65L31.61 8.65L31.61 8.65Q32.17 8.40 33.14 8.36L33.14 8.36L33.14 8.36Q34.31 8.30 34.69 8.23L34.69 8.23L35.53 7.95L35.53 7.95Q35.57 7.95 35.62 7.94L35.62 7.94L35.70 7.94L35.70 7.94Q35.70 8.20 35.41 8.53L35.41 8.53L35.41 8.53Q35.03 8.93 34.97 9.07L34.97 9.07L34.97 9.07Q34.72 9.60 34.69 9.88L34.69 9.88L34.69 9.88Q34.68 10.00 34.68 10.70L34.68 10.70L34.68 11.55L34.68 11.55Q34.68 12.31 35.04 12.31L35.04 12.31L35.04 12.31Q35.07 12.31 35.11 12.29L35.11 12.29L35.81 11.73L35.81 11.73Q35.85 11.72 36.05 11.69L36.05 11.69L36.05 11.69Q36.05 12.56 35.45 13.87L35.45 13.87L35.45 13.87Q34.75 15.40 33.99 15.40L33.99 15.40L33.99 15.40Q33.80 15.40 33.71 15.37L33.71 15.37L33.71 15.37Q32.68 14.66 32.17 13.13L32.17 13.13L32.17 13.13Q31.79 13.87 31.37 14.57L31.37 14.57L31.37 14.57Q30.81 15.53 30.07 15.53L30.07 15.53L30.07 15.53Q28.80 15.53 28.80 12.99ZM30.76 11.89L30.76 11.89L30.76 11.89Q30.76 12.74 31.25 12.74L31.25 12.74L31.25 12.74Q31.67 12.74 32.16 11.62L32.16 11.62L32.16 11.62Q32.61 10.60 32.61 10.02L32.61 10.02L32.61 10.02Q31.47 10.02 31.12 10.39L31.12 10.39L31.12 10.39Q30.76 10.75 30.76 11.89ZM36.79 10.74L36.79 10.74L36.79 10.74Q36.79 8.82 37.84 7.13L37.84 7.13L37.84 7.13Q38.86 5.47 40.57 4.52L40.57 4.52L40.57 4.52Q40.61 4.52 40.71 4.51L40.71 4.51L40.71 4.51Q40.81 4.49 40.85 4.49L40.85 4.49L40.85 4.49Q41.30 4.49 41.52 5.05L41.52 5.05L41.52 5.05Q41.69 5.46 41.69 5.99L41.69 5.99L41.69 5.99Q41.69 7.41 40.94 8.69L40.94 8.69L40.94 8.69Q40.47 9.48 39.17 10.96L39.17 10.96L39.17 11.17L39.17 11.17Q39.17 11.69 39.31 12.21L39.31 12.21L39.31 12.21Q39.51 12.94 39.87 12.94L39.87 12.94L39.87 12.94Q40.11 12.94 40.29 12.78L40.29 12.78L40.29 12.78Q40.92 12.24 41.41 11.66L41.41 11.66L41.68 11.66L41.68 11.66Q41.68 12.99 40.99 14.13L40.99 14.13L40.99 14.13Q40.19 15.46 38.89 15.46L38.89 15.46L38.89 15.46Q37.74 15.46 37.17 13.47L37.17 13.47L37.17 13.47Q36.79 12.15 36.79 10.74ZM39.52 6.73L39.52 6.73L39.52 6.73Q39.38 6.73 39.20 7.73L39.20 7.73L39.20 7.73Q38.99 8.88 38.99 9.98L38.99 9.98L39.17 9.98L39.17 9.98Q39.35 9.98 39.56 9.09L39.56 9.09L39.56 9.09Q39.75 8.30 39.75 7.99L39.75 7.99L39.75 7.99Q39.75 7.11 39.59 6.76L39.59 6.76L39.59 6.76Q39.56 6.73 39.52 6.73Z"></path></g><!----><!----></svg>